<?xml version="1.0" encoding="UTF-8" standalone="no" ?>
<!DOCTYPE svg PUBLIC "-//W3C//DTD SVG 1.1//EN" "http://www.w3.org/Graphics/SVG/1.1/DTD/svg11.dtd">
<svg xmlns="http://www.w3.org/2000/svg" xmlns:xlink="http://www.w3.org/1999/xlink" version="1.1" width="1280" height="1024" viewBox="0 0 1280 1024" xml:space="preserve">
<desc>Created with Fabric.js 5.3.0</desc>
<defs>
</defs>
<g transform="matrix(1 0 0 1 640 512)" id="background-logo"  >
<rect style="stroke: none; stroke-width: 0; stroke-dasharray: none; stroke-linecap: butt; stroke-dashoffset: 0; stroke-linejoin: miter; stroke-miterlimit: 4; fill: rgb(255,255,255); fill-opacity: 0; fill-rule: nonzero; opacity: 1;"  paint-order="stroke"  x="-640" y="-512" rx="0" ry="0" width="1280" height="1024" />
</g>
<g transform="matrix(4.175117174768722 0 0 4.175117174768722 639.192867036011 511.53878116343486)" id="logo-logo"  >
<g style=""  paint-order="stroke"   >
		<g transform="matrix(0.26843382535462446 0 0 0.26843382535462446 0 -2.842171e-14)"  >
<g style=""  paint-order="stroke"   >
		<g transform="matrix(1 0 0 1 207.0499999999999 -9.949999999999989)"  >
<path style="stroke: none; stroke-width: 1; stroke-dasharray: none; stroke-linecap: butt; stroke-dashoffset: 0; stroke-linejoin: miter; stroke-miterlimit: 4; fill: rgb(102,108,60); fill-rule: nonzero; opacity: 1;"  paint-order="stroke"  transform=" translate(-707.5999999999999, -490.09999999999997)" d="M 707.6 510.9 C 719.1 510.9 728.4 501.59999999999997 728.4 490.09999999999997 C 728.4 478.59999999999997 719.1 469.29999999999995 707.6 469.29999999999995 C 696.1 469.29999999999995 686.8000000000001 478.59999999999997 686.8000000000001 490.09999999999997 C 686.8 501.6 696.1 510.9 707.6 510.9 z M 707.6 479.5 C 713.4 479.5 718.2 484.3 718.2 490.1 C 718.2 495.90000000000003 713.4000000000001 500.70000000000005 707.6 500.70000000000005 C 701.8 500.70000000000005 697 496 697 490.1 C 697 484.3 701.7 479.5 707.6 479.5 z" stroke-linecap="round" />
</g>
		<g transform="matrix(1 0 0 1 161.65000000000003 -9.949999999999989)"  >
<path style="stroke: none; stroke-width: 1; stroke-dasharray: none; stroke-linecap: butt; stroke-dashoffset: 0; stroke-linejoin: miter; stroke-miterlimit: 4; fill: rgb(102,108,60); fill-rule: nonzero; opacity: 1;"  paint-order="stroke"  transform=" translate(-662.2, -490.09999999999997)" d="M 662.2 510.9 C 673.7 510.9 683 501.59999999999997 683 490.09999999999997 C 683 478.59999999999997 673.7 469.29999999999995 662.2 469.29999999999995 C 650.7 469.29999999999995 641.4000000000001 478.59999999999997 641.4000000000001 490.09999999999997 C 641.4 501.6 650.7 510.9 662.2 510.9 z M 662.2 479.5 C 668 479.5 672.8000000000001 484.3 672.8000000000001 490.1 C 672.8000000000001 495.90000000000003 668.0000000000001 500.70000000000005 662.2 500.70000000000005 C 656.4 500.70000000000005 651.6 495.90000000000003 651.6 490.1 C 651.6 484.3 656.3 479.5 662.2 479.5 z" stroke-linecap="round" />
</g>
		<g transform="matrix(1 0 0 1 184.34999999999997 -1.3999999999999773)"  >
<path style="stroke: none; stroke-width: 1; stroke-dasharray: none; stroke-linecap: butt; stroke-dashoffset: 0; stroke-linejoin: miter; stroke-miterlimit: 4; fill: rgb(102,108,60); fill-rule: nonzero; opacity: 1;"  paint-order="stroke"  transform=" translate(-684.9, -498.65)" d="M 645.8 456 C 645.5999999999999 456.1 640 458.5 634.5 463.8 C 627.1 471 623.2 480.1 623.2 490.2 C 623.2 496.7 624.2 502.5 626.2 507.5 C 628 512.2 630.7 516.2 634.1 519.4 C 639.9 524.8 647.7 527.8 656 527.8 C 663.4 527.8 668.9 526.5 672.4 525.3 C 675.8 530.9 680.3 538.4 680.6999999999999 539 C 681.5999999999999 540.4 683.1999999999999 541.3 684.9 541.3 C 686.6 541.3 688.1999999999999 540.5 689.1 539 C 689.5 538.4 694 530.9 697.4 525.3 C 700.9 526.5 706.4 527.8 713.8 527.8 C 722.1999999999999 527.8 729.9 524.8 735.6999999999999 519.4 C 739.0999999999999 516.1999999999999 741.8 512.1999999999999 743.5999999999999 507.5 C 745.5999999999999 502.5 746.5999999999999 496.7 746.5999999999999 490.2 C 746.5999999999999 480.09999999999997 742.6999999999999 471 735.3 463.8 C 729.8 458.5 724.1999999999999 456.1 724 456 L 720 465.4 L 720 465.4 C 720 465.4 724.3 467.29999999999995 728.5 471.4 C 733.8 476.59999999999997 736.5 483 736.5 490.2 C 736.5 510.4 724.8 517.7 713.9 517.7 C 703.8 517.7 698.5 514.8000000000001 698.1 514.6 C 696.9 513.9 695.6 513.6 694.3000000000001 513.9 C 693.0000000000001 514.1999999999999 691.8000000000001 515.1 691.1 516.3 C 689.3000000000001 519.3 687 523.0999999999999 685 526.4 C 683 523.1 680.7 519.3 678.9 516.3 C 678.1999999999999 515.0999999999999 677.1 514.3 675.6999999999999 514 C 674.4 513.7 672.9999999999999 513.9 671.8 514.6 C 671.8 514.6 666.4 517.7 656 517.7 C 645.1 517.7 633.4 510.50000000000006 633.4 490.20000000000005 C 633.4 482.90000000000003 636.1 476.6 641.4 471.40000000000003 C 645.6 467.3 649.8 465.40000000000003 649.9 465.40000000000003 L 649.9 465.40000000000003 L 645.8 456 z" stroke-linecap="round" />
</g>
		<g transform="matrix(1 0 0 1 28.94999999999999 -190.44999999999993)"  >
<path style="stroke: none; stroke-width: 1; stroke-dasharray: none; stroke-linecap: butt; stroke-dashoffset: 0; stroke-linejoin: miter; stroke-miterlimit: 4; fill: rgb(102,108,60); fill-rule: nonzero; opacity: 1;"  paint-order="stroke"  transform=" translate(-529.5, -309.6)" d="M 504.2 309.6 C 504.2 323.6 515.6 334.90000000000003 529.5 334.90000000000003 C 543.5 334.90000000000003 554.8 323.50000000000006 554.8 309.6 C 554.8 295.6 543.4 284.3 529.5 284.3 C 515.6 284.3 504.2 295.6 504.2 309.6 z M 544.8 309.6 C 544.8 318 538 324.8 529.5999999999999 324.8 C 521.1999999999999 324.8 514.3999999999999 318 514.3999999999999 309.6 C 514.3999999999999 301.20000000000005 521.1999999999998 294.40000000000003 529.5999999999999 294.40000000000003 C 538 294.4 544.8 301.2 544.8 309.6 z" stroke-linecap="round" />
</g>
		<g transform="matrix(1 0 0 1 -29.649999999999977 -190.44999999999993)"  >
<path style="stroke: none; stroke-width: 1; stroke-dasharray: none; stroke-linecap: butt; stroke-dashoffset: 0; stroke-linejoin: miter; stroke-miterlimit: 4; fill: rgb(102,108,60); fill-rule: nonzero; opacity: 1;"  paint-order="stroke"  transform=" translate(-470.90000000000003, -309.6)" d="M 445.6 309.6 C 445.6 323.6 457 334.90000000000003 470.90000000000003 334.90000000000003 C 484.90000000000003 334.90000000000003 496.20000000000005 323.50000000000006 496.20000000000005 309.6 C 496.20000000000005 295.6 484.80000000000007 284.3 470.90000000000003 284.3 C 456.9 284.3 445.6 295.6 445.6 309.6 z M 486.1 309.6 C 486.1 318 479.3 324.8 470.90000000000003 324.8 C 462.50000000000006 324.8 455.70000000000005 318 455.70000000000005 309.6 C 455.70000000000005 301.20000000000005 462.50000000000006 294.40000000000003 470.90000000000003 294.40000000000003 C 479.3 294.4 486.1 301.2 486.1 309.6 z" stroke-linecap="round" />
</g>
		<g transform="matrix(1 0 0 1 -0.17993087816279285 -242.10000000000002)"  >
<path style="stroke: none; stroke-width: 1; stroke-dasharray: none; stroke-linecap: butt; stroke-dashoffset: 0; stroke-linejoin: miter; stroke-miterlimit: 4; fill: rgb(102,108,60); fill-rule: nonzero; opacity: 1;"  paint-order="stroke"  transform=" translate(-500.3700691218372, -257.94999999999993)" d="M 433.6 252.5 C 440.90000000000003 259.3 452.90000000000003 261.6 469.20000000000005 259.2 C 488.20000000000005 256.4 495.00000000000006 286.2 495.30000000000007 287.59999999999997 C 495.30000000000007 287.79999999999995 495.4000000000001 287.99999999999994 495.4000000000001 288.2 C 495.4000000000001 288.3 495.4000000000001 288.3 495.5000000000001 288.4 C 495.5000000000001 288.4 495.5000000000001 288.4 495.5000000000001 288.4 C 496.2000000000001 290.4 498.2000000000001 291.79999999999995 500.3000000000001 291.79999999999995 C 500.60000000000014 291.79999999999995 501.0000000000001 291.79999999999995 501.3000000000001 291.69999999999993 C 502.7000000000001 291.3999999999999 503.8000000000001 290.5999999999999 504.5000000000001 289.5999999999999 C 504.5000000000001 289.5999999999999 504.5000000000001 289.5999999999999 504.5000000000001 289.5999999999999 C 504.5000000000001 289.4999999999999 504.60000000000014 289.4999999999999 504.60000000000014 289.3999999999999 C 504.60000000000014 289.3999999999999 504.60000000000014 289.3999999999999 504.60000000000014 289.3999999999999 C 504.60000000000014 289.3999999999999 504.70000000000016 289.2999999999999 504.70000000000016 289.2999999999999 C 504.70000000000016 289.2999999999999 504.70000000000016 289.2999999999999 504.70000000000016 289.1999999999999 C 504.70000000000016 289.1999999999999 504.70000000000016 289.09999999999985 504.8000000000002 289.09999999999985 C 504.8000000000002 289.09999999999985 504.8000000000002 289.09999999999985 504.8000000000002 288.99999999999983 C 504.8000000000002 288.99999999999983 504.8000000000002 288.8999999999998 504.9000000000002 288.8999999999998 C 504.9000000000002 288.8999999999998 504.9000000000002 288.8999999999998 504.9000000000002 288.7999999999998 C 504.9000000000002 288.69999999999976 504.9000000000002 288.69999999999976 505.0000000000002 288.5999999999998 C 505.0000000000002 288.5999999999998 505.0000000000002 288.5999999999998 505.0000000000002 288.5999999999998 C 505.10000000000025 288.2999999999998 505.2000000000002 287.9999999999998 505.30000000000024 287.6999999999998 C 505.60000000000025 286.29999999999984 512.4000000000002 256.49999999999983 531.4000000000002 259.29999999999984 C 535.6000000000003 259.89999999999986 539.5000000000002 260.1999999999998 543.1000000000003 260.1999999999998 C 553.6000000000003 260.1999999999998 561.6000000000003 257.6999999999998 567.0000000000002 252.59999999999982 C 573.0000000000002 246.99999999999983 574.2000000000003 239.49999999999983 573.9000000000002 235.99999999999983 L 563.8000000000002 236.79999999999984 C 563.8000000000002 236.79999999999984 563.8000000000002 236.79999999999984 563.8000000000002 236.69999999999985 C 563.8000000000002 236.89999999999984 564.0000000000002 241.59999999999985 560.0000000000002 245.29999999999984 C 555.5000000000002 249.29999999999984 547.4000000000002 250.79999999999984 536.4000000000002 249.69999999999985 C 536.2000000000002 246.19999999999985 535.2000000000002 242.89999999999984 533.3000000000002 239.69999999999985 C 531.4000000000002 236.49999999999986 528.7000000000002 233.69999999999985 525.2000000000002 231.29999999999984 C 518.5000000000001 226.59999999999985 509.70000000000016 224.09999999999985 500.40000000000015 224.09999999999985 C 491.10000000000014 224.09999999999985 482.3000000000001 226.69999999999985 475.60000000000014 231.29999999999984 C 472.20000000000016 233.69999999999985 469.5000000000001 236.49999999999983 467.5000000000001 239.69999999999985 C 465.60000000000014 242.79999999999984 464.5000000000001 246.19999999999985 464.4000000000001 249.69999999999985 C 453.4000000000001 250.79999999999984 445.2000000000001 249.29999999999984 440.80000000000007 245.29999999999984 C 436.80000000000007 241.59999999999985 437.00000000000006 236.89999999999984 437.00000000000006 236.69999999999985 C 437.00000000000006 236.69999999999985 437.00000000000006 236.79999999999984 437.00000000000006 236.79999999999984 L 426.90000000000003 235.99999999999983 C 426.4 239.5 427.6 246.9 433.6 252.5 z M 500.3 234.2 C 513.4 234.2 524.7 240.79999999999998 526 249 C 521.7 249.5 517.6 251 513.9 253.6 C 509.59999999999997 256.6 505.79999999999995 261 502.59999999999997 266.6 C 501.7 268.1 500.99999999999994 269.6 500.29999999999995 271.1 C 499.59999999999997 269.6 498.79999999999995 268.1 497.99999999999994 266.6 C 494.79999999999995 261 490.99999999999994 256.6 486.69999999999993 253.60000000000002 C 482.99999999999994 251.00000000000003 478.8999999999999 249.50000000000003 474.5999999999999 249.00000000000003 C 475.9 240.9 487.1 234.2 500.3 234.2 z" stroke-linecap="round" />
</g>
		<g transform="matrix(1 0 0 1 0 105.10000000000002)"  >
<path style="stroke: none; stroke-width: 1; stroke-dasharray: none; stroke-linecap: butt; stroke-dashoffset: 0; stroke-linejoin: miter; stroke-miterlimit: 4; fill: rgb(102,108,60); fill-rule: nonzero; opacity: 1;"  paint-order="stroke"  transform=" translate(-500.55, -605.15)" d="M 818.4 605.1 C 831.4 598.6 843.5 590 854.1999999999999 579.5 C 872.9999999999999 561.1 881.1999999999999 543.3 881.4999999999999 542.6 C 882.1999999999999 541 882.0999999999999 539.2 881.0999999999999 537.7 C 880.1999999999999 536.2 878.5999999999999 535.4000000000001 876.8 535.4000000000001 L 777.8 535.4000000000001 C 780.4 531.7 783.3 526.8000000000001 785.8 521.0000000000001 C 785.9 520.8000000000001 786 520.5000000000001 786.0999999999999 520.3000000000001 L 880.8 520.3000000000001 C 883.5999999999999 520.3000000000001 885.9 518.0000000000001 885.9 515.2 C 885.9 512.4 883.6 510.1 880.8 510.1 L 789.3 510.1 C 790.5 505 791.0999999999999 499.90000000000003 791 494.70000000000005 C 791 494.50000000000006 791 494.30000000000007 791 494.1 L 900.1 494.1 C 902.9 494.1 905.2 491.8 905.2 489 C 905.2 486.2 902.9000000000001 483.9 900.1 483.9 L 790.1 483.9 C 789.2 478.79999999999995 787.8000000000001 473.79999999999995 785.8000000000001 468.7 L 920.6000000000001 468.7 C 923.4000000000001 468.7 925.7000000000002 466.4 925.7000000000002 463.59999999999997 C 925.7000000000002 460.79999999999995 923.4000000000002 458.49999999999994 920.6000000000001 458.49999999999994 L 777.9 458.49999999999994 C 776.1 458.49999999999994 774.5 459.3999999999999 773.6 460.8999999999999 C 772.7 462.3999999999999 772.6 464.2999999999999 773.4 465.8999999999999 C 777.4 473.5999999999999 779.8 481.2999999999999 780.6 488.99999999999994 C 780.6 489.29999999999995 780.6 489.69999999999993 780.7 489.99999999999994 C 781.4000000000001 497.8999999999999 780.5 505.69999999999993 777.9000000000001 513.4 C 777.9000000000001 513.5 777.8000000000001 513.6 777.8000000000001 513.6999999999999 C 777.5000000000001 514.6999999999999 777.1 515.6999999999999 776.7 516.6999999999999 C 771.6 529.1999999999999 763.7 536.6999999999999 763.7 536.6999999999999 C 762.2 538.0999999999999 761.7 540.3 762.4000000000001 542.3 C 763.2 544.1999999999999 765.0000000000001 545.5 767.1000000000001 545.5 L 868.4000000000001 545.5 C 865.6000000000001 550.2 861.1000000000001 556.8 854.9000000000001 563.9 L 711.8 563.9 C 709.8 563.9 707.9 565.1 707.0999999999999 567 C 707.0999999999999 567.1 704.8 572.4 700.6999999999999 577.6 C 695.6999999999999 583.9 690.5999999999999 587.1 685.3 587.1 C 679.5999999999999 587.1 674.4 580.7 671.0999999999999 575.4 C 666.9999999999999 568.9 664.6999999999999 562.1999999999999 664.5999999999999 562 C 663.6999999999999 559.3 660.8 557.9 658.0999999999999 558.9 C 655.3999999999999 559.8 653.9999999999999 562.6999999999999 654.9999999999999 565.4 C 655.0999999999999 565.6999999999999 657.6999999999999 573.1 662.3999999999999 580.6999999999999 C 665.1999999999998 585.3 668.2999999999998 588.9999999999999 671.4999999999999 591.6999999999999 C 675.8999999999999 595.4999999999999 680.5999999999999 597.4 685.3999999999999 597.4 C 701.3999999999999 597.4 711.4999999999999 581.1999999999999 715.0999999999999 574.1999999999999 L 845.1999999999999 574.1999999999999 C 838.4999999999999 580.4999999999999 831.3 585.9999999999999 823.6999999999999 590.6999999999999 L 734.8 590.6999999999999 C 733.0999999999999 590.6999999999999 731.5 591.4999999999999 730.5999999999999 592.9999999999999 C 730.3999999999999 593.1999999999999 714.4999999999999 616.5999999999999 685.3999999999999 616.5999999999999 C 665.4999999999999 616.5999999999999 650.5999999999999 602.8999999999999 641.1999999999998 575.9999999999999 C 636.9999999999998 563.8999999999999 634.8999999999999 551.6999999999999 633.7999999999998 543.3999999999999 C 640.4999999999999 546.8999999999999 647.7999999999998 548.6999999999998 655.4999999999999 548.6999999999998 C 655.9999999999999 548.6999999999998 656.4999999999999 548.6999999999998 656.9999999999999 548.6999999999998 C 661.5999999999999 548.5999999999998 665.4999999999999 547.7999999999998 668.2999999999998 547.0999999999998 C 672.7999999999998 554.4999999999998 680.5999999999998 567.4999999999998 681.1999999999998 568.2999999999998 C 682.0999999999998 569.6999999999998 683.6999999999998 570.5999999999998 685.3999999999999 570.5999999999998 C 687.0999999999999 570.5999999999998 688.6999999999998 569.6999999999998 689.5999999999999 568.2999999999998 C 690.1999999999999 567.4999999999999 698.0999999999999 554.1999999999998 702.5999999999999 546.8999999999999 C 707.8 547.9999999999999 717.5999999999999 549.1999999999998 729.6999999999999 546.5999999999999 C 739.1999999999999 544.4999999999999 748.6999999999999 537.8 755.8 528.1999999999999 C 763.0999999999999 518.3 767.0999999999999 506.49999999999994 767.0999999999999 494.99999999999994 C 767.0999999999999 474.59999999999997 761.6999999999999 463.79999999999995 757.8 458.69999999999993 C 760 455.49999999999994 762.5999999999999 450.5999999999999 763 444.49999999999994 L 941 444.49999999999994 C 943.8 444.49999999999994 946.1 442.19999999999993 946.1 439.3999999999999 C 946.1 436.5999999999999 943.8000000000001 434.2999999999999 941 434.2999999999999 L 757.5 434.2999999999999 C 756 434.2999999999999 754.6 434.9999999999999 753.6 436.0999999999999 C 752.6 437.2999999999999 752.2 438.7999999999999 752.5 440.2999999999999 C 753.1 443.7999999999999 752.5 447.2999999999999 750.7 450.6999999999999 C 749.3000000000001 453.39999999999986 747.6 454.9999999999999 747.4000000000001 455.1999999999999 C 746.2 456.2999999999999 745.5000000000001 457.7999999999999 745.7 459.39999999999986 C 745.9000000000001 460.9999999999999 746.7 462.29999999999984 748 463.09999999999985 C 748.3 463.39999999999986 750.3 465.09999999999985 752.3 469.39999999999986 C 754.4 473.79999999999984 756.8 481.79999999999984 756.8 494.9999999999999 C 756.8 504.2999999999999 753.5 513.9999999999999 747.5 522.1999999999999 C 741.8 529.9 734.5 535.1999999999999 727.5 536.6999999999999 C 712.8 539.9 702.2 536.4 701.9 536.3 C 699.6 535.5 697.1 536.4 695.8 538.5 C 692.5999999999999 543.8 688.4 550.7 685.3 555.8 C 682.1999999999999 550.6999999999999 678 543.8 674.8 538.5 C 673.5 536.3 670.8 535.4 668.4 536.5 C 668.1999999999999 536.6 648.8 544.7 631 529.6 C 629.5 528.3000000000001 627.3 528 625.5 528.9 C 623.7 529.8 622.6 531.6999999999999 622.7 533.6999999999999 C 622.7 534.5999999999999 623.7 556.8 631.5 579.4 C 636.2 592.9 642.4 603.8 649.9 611.6999999999999 C 658 620.1999999999999 667.6999999999999 625.1999999999999 678.6999999999999 626.6999999999999 C 670.8 632.9999999999999 658.5999999999999 641.9 642.9 650.6999999999999 C 616.4 665.5999999999999 574.3 683.3 523.6999999999999 683.3 C 522.4999999999999 683.3 521.4 683.6999999999999 520.4999999999999 684.4 L 500.6999999999999 700.1999999999999 L 480.89999999999986 684.4 C 479.9999999999999 683.6999999999999 478.89999999999986 683.3 477.6999999999999 683.3 C 427.09999999999985 683.3 384.9999999999999 665.5999999999999 358.4999999999999 650.6999999999999 C 342.7999999999999 641.9 330.4999999999999 632.9999999999999 322.6999999999999 626.6999999999999 C 333.6999999999999 625.3 343.2999999999999 620.3 351.4999999999999 611.6999999999999 C 358.9999999999999 603.8 365.1999999999999 592.9999999999999 369.89999999999986 579.4 C 377.6999999999999 556.8 378.6999999999999 534.6 378.6999999999999 533.6999999999999 C 378.7999999999999 531.6999999999999 377.6999999999999 529.8 375.89999999999986 528.9 C 374.09999999999985 528 371.89999999999986 528.3 370.39999999999986 529.6 C 362.9999999999999 535.8000000000001 354.4999999999999 538.9 345.1999999999999 538.7 C 338.1999999999999 538.6 333.1999999999999 536.6 332.9999999999999 536.5 C 330.6999999999999 535.5 327.9999999999999 536.4 326.5999999999999 538.5 C 323.3999999999999 543.8 319.19999999999993 550.7 316.0999999999999 555.8 C 312.9999999999999 550.6999999999999 308.7999999999999 543.8 305.5999999999999 538.5 C 304.2999999999999 536.4 301.7999999999999 535.5 299.4999999999999 536.3 C 299.0999999999999 536.4 288.5999999999999 539.9 273.89999999999986 536.6999999999999 C 266.79999999999984 535.1999999999999 259.4999999999999 529.9 253.89999999999986 522.1999999999999 C 247.89999999999986 513.9999999999999 244.59999999999985 504.3999999999999 244.59999999999985 494.99999999999994 C 244.59999999999985 481.8999999999999 247.09999999999985 473.8999999999999 249.09999999999985 469.3999999999999 C 251.09999999999985 465.19999999999993 253.09999999999985 463.3999999999999 253.39999999999986 463.0999999999999 C 254.69999999999987 462.2999999999999 255.49999999999986 460.9999999999999 255.69999999999987 459.3999999999999 C 255.89999999999986 457.7999999999999 255.19999999999987 456.2999999999999 253.9999999999999 455.19999999999993 C 253.8999999999999 455.0999999999999 247.3999999999999 448.79999999999995 248.8999999999999 440.29999999999995 C 249.1999999999999 438.79999999999995 248.7999999999999 437.29999999999995 247.7999999999999 436.09999999999997 C 246.7999999999999 434.9 245.3999999999999 434.29999999999995 243.8999999999999 434.29999999999995 L 60.1 434.29999999999995 C 57.300000000000004 434.29999999999995 55 436.59999999999997 55 439.4 C 55 442.2 57.3 444.5 60.1 444.5 L 238.2 444.5 C 238.6 450.6 241.2 455.5 243.39999999999998 458.7 C 239.49999999999997 463.8 234.09999999999997 474.5 234.09999999999997 495 C 234.09999999999997 506.5 238.09999999999997 518.3 245.39999999999998 528.2 C 252.49999999999997 537.9000000000001 262 544.6 271.5 546.6 C 283.7 549.2 293.4 548 298.6 546.9 C 303 554.3 311 567.5 311.6 568.3 C 312.5 569.6999999999999 314.1 570.5999999999999 315.8 570.5999999999999 C 317.5 570.5999999999999 319.1 569.6999999999999 320 568.3 C 320.6 567.5 328.4 554.5 332.9 547.0999999999999 C 335.59999999999997 547.8 339.59999999999997 548.5999999999999 344.2 548.6999999999999 C 352.4 548.9 360.2 547.1999999999999 367.4 543.4999999999999 C 366.4 551.7999999999998 364.2 563.9999999999999 360.09999999999997 576.0999999999999 C 350.7 603.0999999999999 335.9 616.6999999999999 315.9 616.6999999999999 C 313.79999999999995 616.6999999999999 311.7 616.5999999999999 309.59999999999997 616.3 C 309.49999999999994 616.3 309.29999999999995 616.3 309.2 616.3 C 299.7 615.0999999999999 290.7 611.3 282.5 605 C 274.8 599.1 270.7 593.1 270.7 593 C 269.8 591.6 268.2 590.7 266.5 590.7 L 177.6 590.7 C 170 586 162.79999999999998 580.5 156.1 574.2 L 286.2 574.2 C 289.8 581.2 299.9 597.4000000000001 315.9 597.4000000000001 C 320.7 597.4000000000001 325.4 595.5000000000001 329.79999999999995 591.7 C 332.99999999999994 589 335.99999999999994 585.3000000000001 338.9 580.7 C 343.59999999999997 573.2 346.09999999999997 565.8000000000001 346.29999999999995 565.4000000000001 C 347.19999999999993 562.7 345.79999999999995 559.8000000000001 343.19999999999993 558.9000000000001 C 340.49999999999994 558.0000000000001 337.5999999999999 559.4000000000001 336.69999999999993 562.0000000000001 C 336.69999999999993 562.1000000000001 334.3999999999999 568.7000000000002 330.29999999999995 575.2000000000002 C 327.59999999999997 579.6000000000001 322.09999999999997 587.0000000000001 315.99999999999994 587.0000000000001 C 310.69999999999993 587.0000000000001 305.59999999999997 583.8000000000001 300.59999999999997 577.5000000000001 C 296.49999999999994 572.3000000000001 294.2 567.0000000000001 294.2 566.9000000000001 C 293.4 565.0000000000001 291.59999999999997 563.8000000000001 289.5 563.8000000000001 L 146.3 563.8000000000001 C 140.10000000000002 556.7 135.70000000000002 550.1 132.8 545.4000000000001 L 234.10000000000002 545.4000000000001 C 236.20000000000002 545.4000000000001 238.10000000000002 544.1000000000001 238.8 542.2 C 239.60000000000002 540.3000000000001 239.10000000000002 538 237.5 536.6 C 237.4 536.5 229.5 529 224.4 516.6 C 224 515.6 223.6 514.6 223.3 513.6 C 223.3 513.5 223.20000000000002 513.4 223.20000000000002 513.3000000000001 C 220.60000000000002 505.6000000000001 219.60000000000002 497.80000000000007 220.4 489.9000000000001 C 220.5 489.6000000000001 220.5 489.30000000000007 220.5 488.9000000000001 C 221.3 481.30000000000007 223.7 473.6000000000001 227.7 465.80000000000007 C 228.5 464.20000000000005 228.39999999999998 462.30000000000007 227.5 460.80000000000007 C 226.6 459.30000000000007 224.9 458.4000000000001 223.2 458.4000000000001 L 80.6 458.4000000000001 C 77.8 458.4000000000001 75.5 460.7000000000001 75.5 463.5000000000001 C 75.5 466.3000000000001 77.8 468.60000000000014 80.6 468.60000000000014 L 215.4 468.60000000000014 C 213.4 473.60000000000014 212 478.70000000000016 211.1 483.8000000000001 L 100.9 483.8000000000001 C 98.10000000000001 483.8000000000001 95.80000000000001 486.10000000000014 95.80000000000001 488.90000000000015 C 95.80000000000001 491.70000000000016 98.10000000000001 494.00000000000017 100.9 494.00000000000017 L 210 494.00000000000017 C 210 494.20000000000016 210 494.40000000000015 210 494.6000000000002 C 210 499.8000000000002 210.5 504.9000000000002 211.7 510.00000000000017 L 120.19999999999999 510.00000000000017 C 117.39999999999999 510.00000000000017 115.1 512.3000000000002 115.1 515.1000000000001 C 115.1 517.9000000000001 117.39999999999999 520.2000000000002 120.19999999999999 520.2000000000002 L 215 520.2000000000002 C 215.1 520.4000000000002 215.2 520.7000000000002 215.3 520.9000000000002 C 217.70000000000002 526.7000000000002 220.60000000000002 531.6000000000003 223.3 535.3000000000002 L 124.30000000000001 535.3000000000002 C 122.60000000000001 535.3000000000002 121.00000000000001 536.2000000000002 120.00000000000001 537.6000000000001 C 119.10000000000001 539.1000000000001 118.90000000000002 540.9000000000001 119.60000000000001 542.5000000000001 C 119.9 543.2000000000002 128.10000000000002 561.0000000000001 146.9 579.4000000000001 C 157.6 589.9000000000001 169.6 598.5000000000001 182.7 605.0000000000001 L 146.2 648.1000000000001 C 145.39999999999998 649.0000000000001 145 650.2000000000002 145 651.4000000000001 L 145 685.4000000000001 C 145 687.3000000000001 146.1 689.1000000000001 147.8 689.9000000000001 C 148.5 690.3000000000001 149.3 690.4000000000001 150.10000000000002 690.4000000000001 C 151.20000000000002 690.4000000000001 152.20000000000002 690.1000000000001 153.10000000000002 689.4000000000001 L 170.3 676.8000000000001 L 176.9 676.8000000000001 L 176.9 683.1 C 176.9 685.2 178.20000000000002 687.1 180.1 687.8000000000001 C 182 688.6 184.2 688.1 185.7 686.6 L 195.5 676.2 L 198.9 676.2 L 208.4 686.5 C 209.8 688 212 688.5 214 687.8 C 215.9 687 217.2 685.1999999999999 217.2 683.0999999999999 L 217.2 652.9999999999999 C 217.2 650.1999999999999 214.89999999999998 647.8999999999999 212.1 647.8999999999999 L 185 647.8999999999999 L 211.3 615.4999999999999 C 220.4 617.6999999999999 229.8 619.0999999999999 239.5 619.5999999999999 C 239.6 619.5999999999999 239.7 619.5999999999999 239.8 619.5999999999999 C 242.5 619.5999999999999 244.70000000000002 617.4999999999999 244.9 614.8 C 245 612 242.9 609.5999999999999 240.1 609.5 C 230.1 609 220.5 607.5 211.4 605.1 C 211 604.9 210.6 604.8000000000001 210.20000000000002 604.8000000000001 C 206.10000000000002 603.7 202.10000000000002 602.4000000000001 198.20000000000002 600.9000000000001 L 264 600.9000000000001 C 264.7 601.8000000000001 265.6 602.9000000000001 266.7 604.1000000000001 L 229.29999999999998 648.2000000000002 C 228.49999999999997 649.1000000000001 228.1 650.3000000000002 228.1 651.5000000000001 L 228.1 685.5000000000001 C 228.1 687.4000000000001 229.2 689.2000000000002 230.9 690.0000000000001 C 232.6 690.9000000000001 234.70000000000002 690.7000000000002 236.20000000000002 689.6000000000001 L 253.4 677.0000000000001 L 260 677.0000000000001 L 260 683.3000000000001 C 260 685.4000000000001 261.3 687.3000000000001 263.2 688.0000000000001 C 265.09999999999997 688.8000000000001 267.3 688.3000000000001 268.8 686.8000000000001 L 278.6 676.4000000000001 L 282 676.4000000000001 L 291.5 686.7 C 292.9 688.2 295.1 688.7 297.1 688 C 297.5 687.9 297.8 687.7 298.1 687.5 C 305.1 694.1 317.40000000000003 704.6 335.40000000000003 715 C 352.40000000000003 724.9 371.00000000000006 732.8 390.6 738.5 C 414.5 745.4 440 749 466.5 749.1 L 497.1 774.8000000000001 C 498.1 775.6 499.20000000000005 776.0000000000001 500.40000000000003 776.0000000000001 C 500.50000000000006 776.0000000000001 500.6 776.0000000000001 500.70000000000005 776.0000000000001 C 500.80000000000007 776.0000000000001 500.90000000000003 776.0000000000001 501.00000000000006 776.0000000000001 C 502.20000000000005 776.0000000000001 503.30000000000007 775.6000000000001 504.30000000000007 774.8000000000001 L 534.9000000000001 749.1 C 561.4000000000001 748.9 586.9000000000001 745.4 610.8000000000001 738.5 C 630.4000000000001 732.8 649.0000000000001 724.9 666.0000000000001 715 C 684.0000000000001 704.5 696.3000000000001 694.1 703.3000000000001 687.5 C 703.6 687.7 704.0000000000001 687.9 704.3000000000001 688 C 706.2 688.8 708.5000000000001 688.3 709.9000000000001 686.7 L 719.4000000000001 676.4000000000001 L 722.8000000000001 676.4000000000001 L 732.6 686.8000000000001 C 734 688.3000000000001 736.2 688.8000000000001 738.2 688.0000000000001 C 740.1 687.2000000000002 741.4000000000001 685.4000000000001 741.4000000000001 683.3000000000001 L 741.4000000000001 677.0000000000001 L 748.0000000000001 677.0000000000001 L 765.2000000000002 689.6000000000001 C 766.7000000000002 690.7000000000002 768.8000000000002 690.9000000000001 770.5000000000001 690.0000000000001 C 772.2000000000002 689.1000000000001 773.3000000000001 687.4000000000001 773.3000000000001 685.5000000000001 L 773.3000000000001 651.5000000000001 C 773.3000000000001 650.3000000000001 772.9000000000001 649.1000000000001 772.1 648.2000000000002 L 734.7 604.1000000000001 C 735.8000000000001 602.9000000000001 736.7 601.7000000000002 737.4000000000001 600.9000000000001 L 803.2 600.9000000000001 C 799.3000000000001 602.4000000000001 795.3000000000001 603.7 791.2 604.8000000000001 C 790.8000000000001 604.9000000000001 790.4000000000001 605.0000000000001 790 605.1 C 780.9 607.5 771.3 609 761.3 609.5 C 758.5 609.6 756.3 612 756.5 614.8 C 756.6 617.5 758.9 619.5999999999999 761.6 619.5999999999999 C 761.7 619.5999999999999 761.8000000000001 619.5999999999999 761.9 619.5999999999999 C 771.6 619.0999999999999 781 617.6999999999999 790.1 615.4999999999999 L 816.4 647.8999999999999 L 789 647.8999999999999 C 786.2 647.8999999999999 783.9 650.1999999999998 783.9 652.9999999999999 L 783.9 683.0999999999999 C 783.9 685.1999999999999 785.1999999999999 687.0999999999999 787.1 687.8 C 789 688.5999999999999 791.3000000000001 688.0999999999999 792.7 686.5 L 802.2 676.2 L 805.6 676.2 L 815.4 686.6 C 816.8 688.1 819 688.6 821 687.8000000000001 C 822.9 687.0000000000001 824.2 685.2 824.2 683.1 L 824.2 676.8000000000001 L 830.8000000000001 676.8000000000001 L 848.0000000000001 689.4000000000001 C 848.9000000000001 690.1000000000001 849.9000000000001 690.4000000000001 851.0000000000001 690.4000000000001 C 851.8000000000001 690.4000000000001 852.6000000000001 690.2 853.3000000000001 689.9000000000001 C 855.0000000000001 689.0000000000001 856.1 687.3000000000001 856.1 685.4000000000001 L 856.1 651.4000000000001 C 856.1 650.2 855.7 649.0000000000001 854.9 648.1000000000001 L 818.4 605.1 z M 170.4 649.9 C 169.20000000000002 651.4 168.9 653.5 169.8 655.3 C 170.60000000000002 657.0999999999999 172.4 658.1999999999999 174.4 658.1999999999999 L 207 658.1999999999999 L 207 670.1999999999999 L 204.8 667.8 C 203.8 666.8 202.5 666.1999999999999 201.10000000000002 666.1999999999999 L 193.3 666.1999999999999 C 191.9 666.1999999999999 190.60000000000002 666.8 189.60000000000002 667.8 L 186.90000000000003 670.5999999999999 C 186.30000000000004 668.3999999999999 184.30000000000004 666.8 182.00000000000003 666.8 L 168.70000000000002 666.8 C 167.60000000000002 666.8 166.60000000000002 667.0999999999999 165.70000000000002 667.8 L 155.20000000000002 675.5 L 155.20000000000002 653.5 L 192.40000000000003 609.6 C 195.10000000000002 610.7 197.90000000000003 611.7 200.70000000000005 612.7 L 170.4 649.9 z M 295.2 648 L 268.09999999999997 648 L 281.4 631.6 C 283.5 634.1 286.4 637.4 290.09999999999997 641.3000000000001 C 292.2 643.5000000000001 294.59999999999997 646.0000000000001 297.49999999999994 648.7 C 296.9 648.2 296.1 648 295.2 648 z M 660.6 706.1 C 635 721 592 738.8000000000001 532.8000000000001 738.8000000000001 C 531.6 738.8000000000001 530.4000000000001 739.2 529.5000000000001 740.0000000000001 L 500.5000000000001 764.4000000000001 L 471.5000000000001 740.0000000000001 C 470.60000000000014 739.2000000000002 469.4000000000001 738.8000000000001 468.2000000000001 738.8000000000001 C 409.2000000000001 738.8000000000001 366.4000000000001 721.1 340.9000000000001 706.3000000000001 C 317.7000000000001 692.9000000000001 304.2000000000001 679.3000000000001 300.30000000000007 675.1 L 300.30000000000007 653 C 300.30000000000007 652 300.00000000000006 651.1 299.6000000000001 650.4 C 306.9000000000001 657.1999999999999 316.30000000000007 665.1999999999999 327.6000000000001 673.1999999999999 C 346.80000000000007 686.6999999999999 367.50000000000006 697.4999999999999 389.2000000000001 705.1999999999999 C 415.7000000000001 714.6999999999999 443.8000000000001 719.5999999999999 472.60000000000014 719.8 L 497.10000000000014 739.4 C 498.0000000000001 740.1999999999999 499.20000000000016 740.5 500.3000000000001 740.5 C 500.40000000000015 740.5 500.5000000000001 740.5 500.60000000000014 740.5 C 500.70000000000016 740.5 500.8000000000001 740.5 500.90000000000015 740.5 C 502.00000000000017 740.5 503.10000000000014 740.1 504.10000000000014 739.4 L 528.6000000000001 719.8 C 557.4000000000001 719.5999999999999 585.4000000000001 714.6999999999999 612.0000000000001 705.1999999999999 C 633.7000000000002 697.4999999999999 654.4000000000001 686.6999999999999 673.6000000000001 673.1999999999999 C 684.9000000000001 665.1999999999999 694.4000000000001 657.1999999999999 701.6000000000001 650.4 C 701.1000000000001 651.1999999999999 700.9000000000001 652.1 700.9000000000001 653 L 700.9000000000001 675.1 C 696.9 679.3 683.6 692.7 660.6 706.1 z M 705.9 648 C 705 648 704.1999999999999 648.2 703.5 648.6 C 706.3 645.9 708.8 643.4 710.9 641.2 C 714.6 637.3000000000001 717.5 634 719.6 631.5 L 732.9 647.9 L 705.9 647.9 z M 762.8 675.4 L 752.3 667.6999999999999 C 751.4 667.0999999999999 750.4 666.6999999999999 749.3 666.6999999999999 L 736 666.6999999999999 C 733.6 666.6999999999999 731.6 668.3 731.1 670.4999999999999 L 728.4 667.6999999999999 C 727.4 666.6999999999999 726.1 666.0999999999999 724.6999999999999 666.0999999999999 L 716.9 666.0999999999999 C 715.5 666.0999999999999 714.1 666.6999999999999 713.1999999999999 667.6999999999999 L 710.9999999999999 670.0999999999999 L 710.9999999999999 658.0999999999999 L 743.5999999999999 658.0999999999999 C 745.5999999999999 658.0999999999999 747.3 656.9999999999999 748.1999999999999 655.1999999999999 C 748.9999999999999 653.4 748.8 651.3 747.5999999999999 649.8 L 723.5999999999999 620.1999999999999 C 722.5999999999999 618.9999999999999 721.0999999999999 618.3 719.4999999999999 618.3 C 717.8999999999999 618.3 716.4999999999999 619.0999999999999 715.4999999999999 620.4 C 715.4999999999999 620.5 711.2999999999998 626.1 703.2999999999998 634.4 C 695.8999999999999 642 683.6999999999998 653.6 667.2999999999998 665.1 C 638.3999999999999 685.4 590.4999999999999 709.6 526.6999999999998 709.6 C 525.4999999999998 709.6 524.3999999999999 710 523.4999999999998 710.7 L 500.4999999999998 729.1 L 477.4999999999998 710.7 C 476.5999999999998 710 475.4999999999998 709.6 474.2999999999998 709.6 C 410.4999999999998 709.6 362.5999999999998 685.4 333.6999999999998 665.1 C 317.29999999999984 653.6 305.0999999999998 642 297.6999999999998 634.4 C 289.6999999999998 626.1 285.5999999999998 620.5 285.49999999999983 620.4 C 284.59999999999985 619.1 283.09999999999985 618.3 281.49999999999983 618.3 C 279.8999999999998 618.3 278.3999999999998 619 277.3999999999998 620.1999999999999 L 253.3999999999998 649.8 C 252.19999999999982 651.3 251.8999999999998 653.4 252.7999999999998 655.1999999999999 C 253.59999999999982 656.9999999999999 255.3999999999998 658.0999999999999 257.3999999999998 658.0999999999999 L 289.99999999999983 658.0999999999999 L 289.99999999999983 670.0999999999999 L 287.79999999999984 667.6999999999999 C 286.79999999999984 666.6999999999999 285.49999999999983 666.0999999999999 284.09999999999985 666.0999999999999 L 276.29999999999984 666.0999999999999 C 274.89999999999986 666.0999999999999 273.59999999999985 666.6999999999999 272.59999999999985 667.6999999999999 L 269.89999999999986 670.4999999999999 C 269.29999999999984 668.2999999999998 267.29999999999984 666.6999999999999 264.9999999999999 666.6999999999999 L 251.69999999999987 666.6999999999999 C 250.59999999999988 666.6999999999999 249.59999999999988 666.9999999999999 248.69999999999987 667.6999999999999 L 238.19999999999987 675.4 L 238.19999999999987 653.4 L 273.89999999999986 611.1999999999999 C 274.4999999999999 611.6999999999999 275.1999999999999 612.3 275.89999999999986 612.8 C 281.09999999999985 616.9 286.6999999999999 620.0999999999999 292.59999999999985 622.4 C 297.09999999999985 624.1999999999999 301.6999999999999 625.4 306.39999999999986 626.1 C 310.89999999999986 630.3000000000001 327.1999999999999 644.6 352.9999999999999 659.1 C 370.4999999999999 669 388.7999999999999 676.8000000000001 407.2999999999999 682.5 C 429.8999999999999 689.4 452.8999999999999 693 475.69999999999993 693.1 L 496.99999999999994 710.1 C 497.8999999999999 710.8000000000001 499.09999999999997 711.2 500.19999999999993 711.2 C 500.29999999999995 711.2 500.3999999999999 711.2 500.49999999999994 711.2 C 500.59999999999997 711.2 500.69999999999993 711.2 500.79999999999995 711.2 C 501.9 711.2 502.99999999999994 710.8000000000001 503.99999999999994 710.1 L 525.3 693.1 C 548.0999999999999 692.9 571.0999999999999 689.3000000000001 593.6999999999999 682.5 C 612.1999999999999 676.9 630.4999999999999 669 647.9999999999999 659.1 C 673.6999999999999 644.6 690.0999999999999 630.3000000000001 694.5999999999999 626.1 C 699.3 625.4 703.8999999999999 624.2 708.3999999999999 622.4 C 714.2999999999998 620.1 719.8999999999999 616.8 725.0999999999999 612.8 C 725.8 612.3 726.3999999999999 611.6999999999999 727.0999999999999 611.1999999999999 L 762.8 653.4 L 762.8 675.4 z M 846 675.4 L 835.5 667.6999999999999 C 834.6 667.0999999999999 833.6 666.6999999999999 832.5 666.6999999999999 L 819.2 666.6999999999999 C 816.8000000000001 666.6999999999999 814.8000000000001 668.3 814.3000000000001 670.4999999999999 L 811.6 667.6999999999999 C 810.6 666.6999999999999 809.3000000000001 666.0999999999999 807.9 666.0999999999999 L 800.1 666.0999999999999 C 798.7 666.0999999999999 797.3000000000001 666.6999999999999 796.4 667.6999999999999 L 794.1999999999999 670.0999999999999 L 794.1999999999999 658.0999999999999 L 826.8 658.0999999999999 C 828.8 658.0999999999999 830.5 656.9999999999999 831.4 655.1999999999999 C 832.1999999999999 653.4 832 651.3 830.8 649.8 L 800.5 612.5 C 803.3 611.6 806.1 610.5 808.8 609.4 L 846 653.3 L 846 675.4 z" stroke-linecap="round" />
</g>
		<g transform="matrix(1 0 0 1 422.1958160258018 83.15000000000009)"  >
<path style="stroke: none; stroke-width: 1; stroke-dasharray: none; stroke-linecap: butt; stroke-dashoffset: 0; stroke-linejoin: miter; stroke-miterlimit: 4; fill: rgb(102,108,60); fill-rule: nonzero; opacity: 1;"  paint-order="stroke"  transform=" translate(-922.7458160258018, -583.2)" d="M 988.3 536.4 L 901 536.4 C 898.8 536.4 896.9 537.8 896.2 539.9 C 896.2 540 893.4000000000001 548.1 886.8000000000001 558.6999999999999 C 880.8000000000001 568.4 870.2 582.1999999999999 854.3000000000001 592.9999999999999 C 852.8000000000001 593.9999999999999 852.0000000000001 595.5999999999999 852.1 597.3999999999999 C 852.2 599.1999999999998 853.1 600.6999999999998 854.6 601.5999999999999 L 902.6 629.3 C 903.4 629.8 904.3000000000001 630 905.1 630 C 906.9 630 908.6 629.1 909.5 627.5 C 910.9 625.1 910.1 622 907.6 620.6 L 866.4 596.8000000000001 C 869.8 594.2 873 591.3000000000001 876.1 588.3000000000001 L 943.3000000000001 613.0000000000001 C 943.9000000000001 613.2000000000002 944.5000000000001 613.3000000000001 945.1 613.3000000000001 C 947.2 613.3000000000001 949.1 612.0000000000001 949.9 610.0000000000001 C 950.9 607.4000000000001 949.5 604.4000000000001 946.9 603.5000000000001 L 883.6999999999999 580.3000000000001 C 886.5999999999999 576.9000000000001 889.3 573.4000000000001 891.8 569.7 L 977.5 588.4000000000001 C 977.9 588.5000000000001 978.2 588.5000000000001 978.6 588.5000000000001 C 980.9 588.5000000000001 983 586.9000000000001 983.6 584.5000000000001 C 984.2 581.8000000000001 982.5 579.0000000000001 979.7 578.4000000000001 L 897.6 560.5000000000001 C 901 554.7000000000002 903.2 549.8000000000001 904.5 546.7000000000002 L 988.3 546.7000000000002 C 991.0999999999999 546.7000000000002 993.4 544.4000000000002 993.4 541.6000000000001 C 993.4 538.8000000000001 991.1 536.4 988.3 536.4 z" stroke-linecap="round" />
</g>
		<g transform="matrix(1 0 0 1 -207.05 -9.949999999999989)"  >
<path style="stroke: none; stroke-width: 1; stroke-dasharray: none; stroke-linecap: butt; stroke-dashoffset: 0; stroke-linejoin: miter; stroke-miterlimit: 4; fill: rgb(102,108,60); fill-rule: nonzero; opacity: 1;"  paint-order="stroke"  transform=" translate(-293.5, -490.09999999999997)" d="M 293.5 510.9 C 305 510.9 314.3 501.59999999999997 314.3 490.09999999999997 C 314.3 478.59999999999997 305 469.29999999999995 293.5 469.29999999999995 C 282 469.29999999999995 272.7 478.59999999999997 272.7 490.09999999999997 C 272.8 501.6 282.1 510.9 293.5 510.9 z M 293.5 479.5 C 299.3 479.5 304.1 484.3 304.1 490.1 C 304.1 495.90000000000003 299.3 500.70000000000005 293.5 500.70000000000005 C 287.7 500.70000000000005 282.9 495.90000000000003 282.9 490.1 C 282.9 484.3 287.7 479.5 293.5 479.5 z" stroke-linecap="round" />
</g>
		<g transform="matrix(1 0 0 1 -161.65000000000003 -9.949999999999989)"  >
<path style="stroke: none; stroke-width: 1; stroke-dasharray: none; stroke-linecap: butt; stroke-dashoffset: 0; stroke-linejoin: miter; stroke-miterlimit: 4; fill: rgb(102,108,60); fill-rule: nonzero; opacity: 1;"  paint-order="stroke"  transform=" translate(-338.9, -490.09999999999997)" d="M 338.9 510.9 C 350.4 510.9 359.7 501.59999999999997 359.7 490.09999999999997 C 359.7 478.59999999999997 350.4 469.29999999999995 338.9 469.29999999999995 C 327.4 469.29999999999995 318.09999999999997 478.59999999999997 318.09999999999997 490.09999999999997 C 318.2 501.6 327.5 510.9 338.9 510.9 z M 338.9 479.5 C 344.7 479.5 349.5 484.3 349.5 490.1 C 349.5 495.90000000000003 344.7 500.70000000000005 338.9 500.70000000000005 C 333.09999999999997 500.70000000000005 328.29999999999995 495.90000000000003 328.29999999999995 490.1 C 328.3 484.3 333.1 479.5 338.9 479.5 z" stroke-linecap="round" />
</g>
		<g transform="matrix(1 0 0 1 -184.35000000000008 -1.3999999999999773)"  >
<path style="stroke: none; stroke-width: 1; stroke-dasharray: none; stroke-linecap: butt; stroke-dashoffset: 0; stroke-linejoin: miter; stroke-miterlimit: 4; fill: rgb(102,108,60); fill-rule: nonzero; opacity: 1;"  paint-order="stroke"  transform=" translate(-316.19999999999993, -498.65)" d="M 277.1 456 C 276.90000000000003 456.1 271.3 458.5 265.8 463.8 C 258.40000000000003 471 254.5 480.1 254.5 490.2 C 254.5 496.7 255.5 502.5 257.5 507.5 C 259.3 512.2 262 516.2 265.4 519.4 C 271.2 524.8 279 527.8 287.29999999999995 527.8 C 294.69999999999993 527.8 300.19999999999993 526.5 303.69999999999993 525.3 C 307.0999999999999 530.9 311.5999999999999 538.4 311.99999999999994 539 C 312.8999999999999 540.4 314.49999999999994 541.3 316.19999999999993 541.3 C 316.19999999999993 541.3 316.19999999999993 541.3 316.19999999999993 541.3 C 317.8999999999999 541.3 319.49999999999994 540.5 320.3999999999999 539 C 320.7999999999999 538.4 325.2999999999999 530.9 328.69999999999993 525.3 C 332.19999999999993 526.5 337.69999999999993 527.8 345.0999999999999 527.8 C 353.4999999999999 527.8 361.19999999999993 524.8 366.9999999999999 519.4 C 370.39999999999986 516.1999999999999 373.0999999999999 512.1999999999999 374.89999999999986 507.5 C 376.89999999999986 502.5 377.89999999999986 496.7 377.89999999999986 490.2 C 377.89999999999986 480.09999999999997 373.9999999999999 471 366.59999999999985 463.8 C 361.09999999999985 458.5 355.49999999999983 456.1 355.29999999999984 456 L 351.29999999999984 465.4 L 351.29999999999984 465.4 C 351.29999999999984 465.4 355.59999999999985 467.29999999999995 359.79999999999984 471.4 C 365.09999999999985 476.59999999999997 367.79999999999984 483 367.79999999999984 490.2 C 367.79999999999984 510.4 356.09999999999985 517.7 345.1999999999998 517.7 C 335.0999999999998 517.7 329.79999999999984 514.8000000000001 329.3999999999998 514.6 C 328.1999999999998 513.9 326.8999999999998 513.6 325.5999999999998 513.9 C 324.2999999999998 514.1999999999999 323.0999999999998 515.1 322.3999999999998 516.3 C 320.5999999999998 519.3 318.2999999999998 523.0999999999999 316.2999999999998 526.4 C 314.2999999999998 523.1 311.9999999999998 519.3 310.19999999999976 516.3 C 309.4999999999998 515.0999999999999 308.39999999999975 514.3 306.9999999999998 514 C 305.69999999999976 513.7 304.2999999999998 513.9 303.0999999999998 514.6 C 303.0999999999998 514.6 297.6999999999998 517.7 287.2999999999998 517.7 C 276.3999999999998 517.7 264.69999999999976 510.50000000000006 264.69999999999976 490.20000000000005 C 264.69999999999976 482.90000000000003 267.39999999999975 476.6 272.69999999999976 471.40000000000003 C 276.89999999999975 467.3 281.09999999999974 465.40000000000003 281.19999999999976 465.40000000000003 L 281.19999999999976 465.40000000000003 L 277.1 456 z" stroke-linecap="round" />
</g>
		<g transform="matrix(1 0 0 1 -422.1962181489726 83.10000000000014)"  >
<path style="stroke: none; stroke-width: 1; stroke-dasharray: none; stroke-linecap: butt; stroke-dashoffset: 0; stroke-linejoin: miter; stroke-miterlimit: 4; fill: rgb(102,108,60); fill-rule: nonzero; opacity: 1;"  paint-order="stroke"  transform=" translate(-78.3537818510274, -583.1500000000001)" d="M 149 597.4 C 149.1 595.6 148.2 594 146.8 593 C 130.8 582.2 120.30000000000001 568.4 114.30000000000001 558.7 C 107.70000000000002 548.1 104.9 540 104.9 539.9000000000001 C 104.2 537.8000000000001 102.30000000000001 536.4000000000001 100.10000000000001 536.4000000000001 L 12.8 536.4000000000001 C 10 536.4000000000001 7.700000000000001 538.7 7.700000000000001 541.5000000000001 C 7.700000000000001 544.3000000000002 10 546.6000000000001 12.8 546.6000000000001 L 96.6 546.6000000000001 C 97.89999999999999 549.7000000000002 100.1 554.5000000000001 103.5 560.4000000000001 L 21.400000000000006 578.3000000000001 C 18.700000000000006 578.9000000000001 16.900000000000006 581.6 17.500000000000007 584.4000000000001 C 18.000000000000007 586.8000000000001 20.10000000000001 588.4000000000001 22.500000000000007 588.4000000000001 C 22.900000000000006 588.4000000000001 23.200000000000006 588.4000000000001 23.60000000000001 588.3000000000001 L 109.30000000000001 569.6 C 111.80000000000001 573.3000000000001 114.60000000000001 576.8000000000001 117.4 580.2 L 54.2 603.4000000000001 C 51.6 604.4000000000001 50.2 607.3000000000001 51.2 609.9000000000001 C 52 612.0000000000001 53.900000000000006 613.2 56 613.2 C 56.6 613.2 57.2 613.1 57.8 612.9000000000001 L 125 588.2 C 128.1 591.2 131.4 594.1 134.7 596.7 L 93.49999999999999 620.5 C 91.09999999999998 621.9 90.19999999999999 625 91.59999999999998 627.4 C 92.49999999999999 629 94.29999999999998 629.9 95.99999999999999 629.9 C 96.89999999999999 629.9 97.69999999999999 629.6999999999999 98.49999999999999 629.1999999999999 L 146.5 601.4999999999999 C 148 600.7 149 599.1 149 597.4 z" stroke-linecap="round" />
</g>
		<g transform="matrix(1 0 0 1 0.1380060709923896 -129.69999999999942)"  >
<path style="stroke: none; stroke-width: 1; stroke-dasharray: none; stroke-linecap: butt; stroke-dashoffset: 0; stroke-linejoin: miter; stroke-miterlimit: 4; fill: rgb(102,108,60); fill-rule: nonzero; opacity: 1;"  paint-order="stroke"  transform=" translate(-500.6880060709924, -370.35000000000053)" d="M 210.9 278.6 C 210.9 278.6 210.9 278.6 210.9 278.6 C 210.9 278.6 210.9 278.6 210.9 278.6 C 210.9 278.6 210.9 278.6 210.9 278.6 L 279.5 439.1 C 275 438.6 272.5 437.3 271 435.90000000000003 C 268.3 433.50000000000006 268.4 430.3 268.4 430.1 C 268.4 430.20000000000005 268.4 430.20000000000005 268.4 430.20000000000005 L 258.29999999999995 429.40000000000003 C 258.19999999999993 430.20000000000005 257.9 437.50000000000006 263.99999999999994 443.20000000000005 C 269.8999999999999 448.70000000000005 279.49999999999994 450.6 292.49999999999994 448.70000000000005 C 306.09999999999997 446.70000000000005 311.09999999999997 468.50000000000006 311.3999999999999 469.80000000000007 C 311.49999999999994 470.1000000000001 311.49999999999994 470.4000000000001 311.69999999999993 470.70000000000005 C 311.69999999999993 470.70000000000005 311.69999999999993 470.70000000000005 311.69999999999993 470.80000000000007 C 311.69999999999993 470.80000000000007 311.69999999999993 470.9000000000001 311.69999999999993 470.9000000000001 C 311.69999999999993 470.9000000000001 311.69999999999993 471.0000000000001 311.69999999999993 471.0000000000001 C 311.69999999999993 471.0000000000001 311.69999999999993 471.10000000000014 311.69999999999993 471.10000000000014 C 311.69999999999993 471.10000000000014 311.69999999999993 471.20000000000016 311.79999999999995 471.20000000000016 C 311.79999999999995 471.20000000000016 311.79999999999995 471.3000000000002 311.79999999999995 471.3000000000002 C 311.79999999999995 471.3000000000002 311.79999999999995 471.4000000000002 311.9 471.4000000000002 C 311.9 471.4000000000002 311.9 471.5000000000002 311.9 471.5000000000002 C 311.9 471.5000000000002 311.9 471.60000000000025 312 471.60000000000025 C 312 471.60000000000025 312 471.7000000000003 312.1 471.7000000000003 C 312.1 471.7000000000003 312.1 471.8000000000003 312.20000000000005 471.8000000000003 C 312.20000000000005 471.8000000000003 312.20000000000005 471.9000000000003 312.30000000000007 471.9000000000003 C 312.30000000000007 471.9000000000003 312.30000000000007 471.9000000000003 312.30000000000007 471.9000000000003 C 313.00000000000006 472.9000000000003 314.1000000000001 473.6000000000003 315.30000000000007 473.8000000000003 C 315.6000000000001 473.9000000000003 316.00000000000006 473.9000000000003 316.30000000000007 473.9000000000003 C 318.6000000000001 473.9000000000003 320.6000000000001 472.4000000000003 321.20000000000005 470.20000000000033 C 321.20000000000005 470.1000000000003 321.30000000000007 469.9000000000003 321.30000000000007 469.80000000000035 C 321.6000000000001 468.60000000000036 326.6000000000001 446.70000000000033 340.20000000000005 448.70000000000033 C 353.20000000000005 450.6000000000003 362.80000000000007 448.70000000000033 368.70000000000005 443.20000000000033 C 374.80000000000007 437.50000000000034 374.50000000000006 430.20000000000033 374.40000000000003 429.4000000000003 L 364.3 430.20000000000033 C 364.3 430.20000000000033 364.3 430.20000000000033 364.3 430.1000000000003 C 364.3 430.20000000000033 364.40000000000003 433.4000000000003 361.7 435.9000000000003 C 359.2 438.1000000000003 353.8 440.4000000000003 341.7 438.70000000000033 C 341.59999999999997 438.70000000000033 341.5 438.70000000000033 341.3 438.70000000000033 L 295.8 329.3000000000003 L 425 329.3000000000003 C 425.3 330.0000000000003 425.5 330.8000000000003 425.8 331.5000000000003 C 428.1 337.3000000000003 431.40000000000003 342.3000000000003 435.7 346.3000000000003 C 442.9 353.1000000000003 452.59999999999997 356.8000000000003 463 356.8000000000003 C 473.2 356.8000000000003 480.5 354.8000000000003 484.9 353.2000000000003 C 489 360.0000000000003 495.7 371.10000000000025 496.2 371.8000000000003 C 497.09999999999997 373.2000000000003 498.7 374.1000000000003 500.4 374.1000000000003 C 502.09999999999997 374.1000000000003 503.7 373.3000000000003 504.59999999999997 371.8000000000003 C 505.09999999999997 371.1000000000003 511.79999999999995 360.0000000000003 515.9 353.2000000000003 C 520.3 354.8000000000003 527.6 356.8000000000003 537.8 356.8000000000003 C 548.1999999999999 356.8000000000003 557.9 353.1000000000003 565.0999999999999 346.3000000000003 C 569.3999999999999 342.3000000000003 572.6999999999999 337.3000000000003 574.9999999999999 331.5000000000003 C 575.2999999999998 330.8000000000003 575.4999999999999 330.0000000000003 575.7999999999998 329.3000000000003 L 705.5999999999999 329.3000000000003 L 660.0999999999999 438.7000000000003 C 659.9999999999999 438.7000000000003 659.8999999999999 438.7000000000003 659.6999999999999 438.7000000000003 C 647.6999999999999 440.40000000000026 642.1999999999999 438.2000000000003 639.6999999999999 435.90000000000026 C 636.9999999999999 433.5000000000003 637.0999999999999 430.30000000000024 637.0999999999999 430.10000000000025 C 637.0999999999999 430.2000000000003 637.0999999999999 430.2000000000003 637.0999999999999 430.2000000000003 L 626.9999999999999 429.40000000000026 C 626.8999999999999 430.2000000000003 626.5999999999999 437.5000000000003 632.6999999999999 443.2000000000003 C 638.5999999999999 448.7000000000003 648.1999999999999 450.60000000000025 661.1999999999999 448.7000000000003 C 674.8 446.7000000000003 679.8 468.5000000000003 680.0999999999999 469.8000000000003 C 680.1999999999999 470.1000000000003 680.1999999999999 470.4000000000003 680.3999999999999 470.7000000000003 C 680.3999999999999 470.7000000000003 680.3999999999999 470.7000000000003 680.3999999999999 470.8000000000003 C 680.3999999999999 470.8000000000003 680.3999999999999 470.9000000000003 680.3999999999999 470.9000000000003 C 680.3999999999999 470.9000000000003 680.3999999999999 471.00000000000034 680.3999999999999 471.00000000000034 C 680.3999999999999 471.00000000000034 680.3999999999999 471.10000000000036 680.3999999999999 471.10000000000036 C 680.3999999999999 471.10000000000036 680.3999999999999 471.2000000000004 680.4999999999999 471.2000000000004 C 680.4999999999999 471.2000000000004 680.4999999999999 471.3000000000004 680.4999999999999 471.3000000000004 C 680.4999999999999 471.3000000000004 680.4999999999999 471.40000000000043 680.5999999999999 471.40000000000043 C 680.5999999999999 471.40000000000043 680.5999999999999 471.50000000000045 680.5999999999999 471.50000000000045 C 680.5999999999999 471.50000000000045 680.5999999999999 471.6000000000005 680.6999999999999 471.6000000000005 C 680.6999999999999 471.6000000000005 680.6999999999999 471.7000000000005 680.8 471.7000000000005 C 680.8 471.7000000000005 680.8 471.8000000000005 680.9 471.8000000000005 C 680.9 471.8000000000005 680.9 471.90000000000055 681 471.90000000000055 C 681 471.90000000000055 681 471.90000000000055 681 471.90000000000055 C 681.7 472.90000000000055 682.8 473.60000000000053 684 473.8000000000005 C 684.3 473.90000000000055 684.7 473.90000000000055 685 473.90000000000055 C 687.3 473.90000000000055 689.3 472.40000000000055 689.9 470.20000000000056 C 689.9 470.10000000000053 690 469.90000000000055 690 469.8000000000006 C 690.3 468.6000000000006 695.3 446.70000000000056 708.9 448.70000000000056 C 721.9 450.60000000000053 731.5 448.70000000000056 737.4 443.20000000000056 C 743.5 437.50000000000057 743.1999999999999 430.20000000000056 743.1 429.40000000000055 L 733 430.20000000000056 C 733 430.20000000000056 733 430.20000000000056 733 430.10000000000053 C 733 430.20000000000056 733.1 433.40000000000055 730.4 435.90000000000055 C 728.9 437.20000000000056 726.3 438.60000000000053 721.9 439.10000000000053 L 790.5 278.60000000000053 C 790.5 278.60000000000053 790.5 278.60000000000053 790.5 278.60000000000053 C 790.5 278.60000000000053 790.5 278.60000000000053 790.5 278.60000000000053 C 790.5 278.60000000000053 790.5 278.60000000000053 790.5 278.60000000000053 C 790.5 278.60000000000053 790.5 278.60000000000053 790.5 278.60000000000053 C 790.5 278.60000000000053 790.5 278.60000000000053 790.5 278.60000000000053 L 790.5 278.60000000000053 C 791 277.40000000000055 791 276.20000000000056 790.7 275.10000000000053 C 790.6 274.90000000000055 790.5 274.70000000000056 790.4000000000001 274.40000000000055 C 789.9000000000001 273.40000000000055 789.0000000000001 272.50000000000057 787.9000000000001 272.00000000000057 C 787.8000000000001 272.00000000000057 787.8000000000001 271.90000000000055 787.7 271.90000000000055 C 787 271.60000000000053 786.4000000000001 271.50000000000057 785.7 271.50000000000057 L 558.3 271.50000000000057 C 553.9 268.3000000000006 550.4 266.90000000000055 550.1999999999999 266.8000000000006 L 546.1999999999999 276.20000000000056 L 546.1999999999999 276.20000000000056 C 546.1999999999999 276.20000000000056 549.4999999999999 277.60000000000053 553.4 280.60000000000053 C 553.5 280.60000000000053 553.5 280.70000000000056 553.6 280.70000000000056 C 554.9 281.70000000000056 556.2 282.8000000000006 557.6 284.10000000000053 C 562.7 289.10000000000053 566 294.90000000000055 567.5 301.3000000000005 C 567.5 301.40000000000055 567.6 301.60000000000053 567.6 301.7000000000005 C 568.2 304.2000000000005 568.4 306.8000000000005 568.4 309.6000000000005 C 568.4 336.9000000000005 552.5 346.6000000000005 537.6999999999999 346.6000000000005 C 524.0999999999999 346.6000000000005 516.9 342.6000000000005 516.4999999999999 342.4000000000005 C 515.2999999999998 341.7000000000005 513.9999999999999 341.4000000000005 512.6999999999999 341.80000000000047 C 511.3999999999999 342.1000000000005 510.19999999999993 343.00000000000045 509.49999999999994 344.20000000000044 C 506.69999999999993 348.80000000000047 503.09999999999997 354.80000000000047 500.29999999999995 359.40000000000043 C 497.49999999999994 354.8000000000004 493.9 348.90000000000043 491.09999999999997 344.20000000000044 C 490.4 343.00000000000045 489.29999999999995 342.20000000000044 487.9 341.80000000000047 C 486.59999999999997 341.50000000000045 485.2 341.70000000000044 484.09999999999997 342.4000000000005 C 483.7 342.6000000000005 476.49999999999994 346.6000000000005 462.9 346.6000000000005 C 448 346.6000000000005 432.2 336.9000000000005 432.2 309.6000000000005 C 432.2 306.9000000000005 432.5 304.2000000000005 433 301.7000000000005 C 433 301.6000000000005 433.1 301.5000000000005 433.1 301.4000000000005 C 434.6 294.9000000000005 437.90000000000003 289.2000000000005 443 284.2000000000005 C 448.6 278.7000000000005 454.3 276.2000000000005 454.3 276.2000000000005 L 454.3 276.2000000000005 L 450.3 266.8000000000005 C 450.1 266.90000000000055 446.6 268.40000000000055 442.2 271.5000000000005 L 215.7 271.5000000000005 C 215 271.5000000000005 214.29999999999998 271.60000000000053 213.7 271.9000000000005 C 213.7 271.9000000000005 213.7 271.9000000000005 213.7 271.9000000000005 C 213.7 271.9000000000005 213.7 271.9000000000005 213.7 271.9000000000005 C 213.7 271.9000000000005 213.7 271.9000000000005 213.7 271.9000000000005 C 213.7 271.9000000000005 213.7 271.9000000000005 213.7 271.9000000000005 C 213.7 271.9000000000005 213.6 271.9000000000005 213.6 271.9000000000005 C 213.6 271.9000000000005 213.6 271.9000000000005 213.6 271.9000000000005 C 213.6 271.9000000000005 213.6 271.9000000000005 213.6 271.9000000000005 C 212.4 272.4000000000005 211.6 273.30000000000047 211 274.4000000000005 C 211 274.4000000000005 211 274.4000000000005 211 274.4000000000005 C 211 274.4000000000005 211 274.4000000000005 211 274.4000000000005 C 210.9 274.6000000000005 210.8 274.80000000000047 210.8 275.0000000000005 C 210.8 275.0000000000005 210.8 275.0000000000005 210.8 275.0000000000005 C 210.8 275.0000000000005 210.8 275.0000000000005 210.8 275.0000000000005 C 210.3 276.2 210.4 277.4 210.9 278.6 C 210.9 278.6 210.9 278.6 210.9 278.6 z M 717.3 321.3 C 716.4 319.90000000000003 714.8 319 713.0999999999999 319 L 577.9 319 C 578.3 316 578.5 312.9 578.5 309.6 C 578.5 308.20000000000005 578.4 306.8 578.3 305.5 L 740.5999999999999 305.5 L 692.6999999999999 423.4 C 690.1999999999999 422.79999999999995 687.5999999999999 422.4 684.9 422.4 C 682.3 422.4 679.6999999999999 422.7 677.3 423.29999999999995 L 717.8 325.99999999999994 C 718.4 324.5 718.2 322.7 717.3 321.3 z M 694.8 442.3 C 691.4 444.7 688.3 448.2 685.6999999999999 452.7 C 685.4 453.2 685.1999999999999 453.7 684.9 454.2 C 684.6 453.7 684.4 453.2 684.1 452.7 C 681.5 448.2 678.5 444.7 675 442.3 C 673.7 441.40000000000003 672.4 440.6 671 440.1 C 671.7 436.40000000000003 677.2 432.70000000000005 684.9 432.70000000000005 C 688.1 432.70000000000005 691 433.40000000000003 693.1999999999999 434.40000000000003 C 693.3 434.50000000000006 693.4999999999999 434.50000000000006 693.5999999999999 434.6 C 696.4999999999999 436 698.3999999999999 438.1 698.8 440.1 C 697.4 440.6 696.1 441.4 694.8 442.3 z M 710.8 438.7 C 710.5999999999999 438.7 710.4 438.7 710.3 438.59999999999997 C 709.8 438.49999999999994 709.4 438.49999999999994 708.9 438.4 C 708.1999999999999 434.29999999999995 705.8 430.5 702 427.59999999999997 L 753 302.19999999999993 C 753.6 300.5999999999999 753.5 298.79999999999995 752.5 297.3999999999999 C 751.6 295.99999999999994 750 295.19999999999993 748.3 295.19999999999993 L 576.3 295.19999999999993 C 574.6999999999999 290.29999999999995 572.1999999999999 285.69999999999993 569 281.5999999999999 L 777.9 281.5999999999999 L 710.8 438.7 z M 326.1 442.3 C 322.70000000000005 444.7 319.6 448.2 317 452.7 C 316.7 453.2 316.5 453.7 316.2 454.2 C 315.9 453.7 315.7 453.2 315.4 452.7 C 312.79999999999995 448.2 309.79999999999995 444.7 306.29999999999995 442.3 C 304.99999999999994 441.40000000000003 303.69999999999993 440.6 302.29999999999995 440.1 C 302.69999999999993 438.1 304.59999999999997 436 307.49999999999994 434.6 C 307.59999999999997 434.5 307.79999999999995 434.5 307.8999999999999 434.40000000000003 C 310.19999999999993 433.40000000000003 312.99999999999994 432.70000000000005 316.19999999999993 432.70000000000005 C 323.8999999999999 432.70000000000005 329.3999999999999 436.50000000000006 330.0999999999999 440.1 C 328.8 440.6 327.4 441.4 326.1 442.3 z M 288.1 319 C 286.40000000000003 319 284.8 319.8 283.90000000000003 321.3 C 283.00000000000006 322.7 282.8 324.5 283.40000000000003 326.1 L 323.90000000000003 423.40000000000003 C 321.50000000000006 422.8 318.90000000000003 422.50000000000006 316.3 422.50000000000006 C 313.6 422.50000000000006 310.90000000000003 422.80000000000007 308.5 423.50000000000006 L 260.6 305.6 L 422.3 305.6 C 422.2 307 422.1 308.3 422.1 309.70000000000005 C 422.1 313.00000000000006 422.3 316.1 422.70000000000005 319.1 L 288.1 319.1 z M 431.5 281.7 C 428.2 285.9 425.8 290.4 424.2 295.3 L 252.9 295.3 C 251.20000000000002 295.3 249.6 296.1 248.70000000000002 297.5 C 247.8 298.9 247.60000000000002 300.7 248.20000000000002 302.3 L 299.20000000000005 427.70000000000005 C 295.40000000000003 430.6 293.00000000000006 434.40000000000003 292.30000000000007 438.50000000000006 C 291.80000000000007 438.50000000000006 291.4000000000001 438.6000000000001 290.9000000000001 438.70000000000005 C 290.7000000000001 438.70000000000005 290.5000000000001 438.80000000000007 290.4000000000001 438.80000000000007 L 223.3000000000001 281.80000000000007 L 431.5 281.80000000000007 z" stroke-linecap="round" />
</g>
</g>
</g>
</g>
</g>
<g transform="matrix(1.9211538461538462 0 0 1.9211538461538462 594.3362607669064 504.9735819593823)" id="tagline-efaef4c1-f201-44df-8a52-af5bf686d5ff-logo"  >
<g style=""  paint-order="stroke"   >
		<g transform="matrix(1 0 0 1 0 0)" id="tagline-efaef4c1-f201-44df-8a52-af5bf686d5ff-logo-path-0"  >
<path style="stroke: none; stroke-width: 0; stroke-dasharray: none; stroke-linecap: butt; stroke-dashoffset: 0; stroke-linejoin: miter; stroke-miterlimit: 4; fill: rgb(102,108,60); fill-rule: nonzero; opacity: 1;"  paint-order="stroke"  transform=" translate(-23.299984552841856, 33.355)" d="M 8.86 -59.27 L 8.86 -7.43 C 8.86 -2.1 7.05 -2.38 3.91 -2.38 C 3.14 -2.38 2.86 -1.72 2.86 -1.24 C 2.86 -0.48 3.24 0 3.91 0 L 22.39 0 C 23.16 0 23.44 -0.76 23.44 -1.24 C 23.44 -1.91 22.97 -2.38 22.39 -2.38 C 19.25 -2.38 17.44 -2.1 17.44 -7.43 L 17.44 -32.5 C 17.44 -33.35 18.11 -34.02 18.96 -34.02 L 24.87 -34.02 C 30.21 -34.02 29.92 -31.83 29.92 -28.11 C 29.92 -27.16 30.59 -26.78 31.07 -26.78 C 31.83 -26.78 32.31 -27.25 32.31 -28.11 L 32.31 -42.31 C 32.31 -43.26 31.54 -43.65 31.07 -43.65 C 30.4 -43.65 29.92 -43.07 29.92 -42.31 C 29.92 -38.59 30.21 -36.4 24.87 -36.4 L 18.96 -36.4 C 18.11 -36.4 17.44 -37.07 17.44 -37.93 L 17.44 -62.8 C 17.44 -63.66 18.11 -64.32 18.96 -64.32 L 31.73 -64.32 C 38.59 -64.32 39.17 -60.51 40.69 -55.37 C 40.98 -54.13 41.93 -53.94 42.6 -54.03 C 43.55 -54.32 43.93 -55.08 43.65 -56.22 L 41.36 -64.52 L 41.17 -65.28 C 40.88 -66.04 40.02 -66.71 39.17 -66.71 L 3.91 -66.71 C 3.14 -66.71 2.86 -65.94 2.86 -65.47 C 2.86 -64.8 3.34 -64.32 3.91 -64.32 C 7.05 -64.32 8.86 -64.61 8.86 -59.27 Z" stroke-linecap="round" />
</g>
</g>
</g>
<g transform="matrix(1.9211538461538462 0 0 1.9211538461538462 699.3842876957161 505.0055491445029)" id="tagline-b7271b68-4d48-4190-bae8-0bc559a49179-logo"  >
<g style=""  paint-order="stroke"   >
		<g transform="matrix(1 0 0 1 0 0)" id="tagline-b7271b68-4d48-4190-bae8-0bc559a49179-logo-path-0"  >
<path style="stroke: none; stroke-width: 0; stroke-dasharray: none; stroke-linecap: butt; stroke-dashoffset: 0; stroke-linejoin: miter; stroke-miterlimit: 4; fill: rgb(102,108,60); fill-rule: nonzero; opacity: 1;"  paint-order="stroke"  transform=" translate(-26.175658787268244, 33.19)" d="M 36.23 -66.1 C 33.86 -66.95 31.2 -67.33 28.45 -67.33 C 13.18 -67.33 2.84 -54.43 2.84 -33.29 C 2.84 -12.61 12.42 0.95 28.45 0.95 C 38.88 0.95 46.75 -6.64 49.5 -22.1 C 49.6 -22.85 49.03 -23.8 48.08 -23.8 C 47.42 -23.8 46.75 -23.23 46.66 -22.66 C 44.1 -8.25 37.55 -1.9 28.45 -1.9 C 18.4 -1.9 12.33 -13.85 12.33 -33.29 C 12.33 -53.3 18.87 -65.43 28.45 -65.43 C 35.75 -65.43 42.01 -58.61 44.86 -47.42 L 45.23 -47.42 C 46.09 -47.42 46.66 -48.08 46.56 -48.93 L 45.05 -65.81 C 44.95 -66.67 44.19 -67.33 43.34 -67.33 L 42.96 -67.33 C 42.96 -64.49 38.88 -65.15 36.23 -66.1 Z" stroke-linecap="round" />
</g>
</g>
</g>
</svg>